# xmcd CD database file
#
# Track frame offsets:
#	150
#	12395
#	18859
#	32989
#	40476
#	53911
#	67663
#	83944
#	94340
#	111787
#	119568
#	126800
#	136894
#	146324
#	162615
#	174357
#	182055
#	215532
#	226880
#	241498
#
# Disc length: 3389 seconds
#
# Revision: 0
# Processed by: cddbd v1.5.1PL0 Copyright (c) Steve Scherf et al.
# Submitted via: CDex 1.51
#
DISCID=160d3b14
DTITLE=Johnny Cash - At Folsom Prison
DYEAR=1900
DGENRE=Country
TTITLE0=Folsom Prison Blues
TTITLE1=Busted
TTITLE2=Dark As The Dungeon
TTITLE3=I Still Miss Someone
TTITLE4=Cocaine Blues
TTITLE5=25 Minutes To Go
TTITLE6=Orange Blossom Special
TTITLE7=The Long Black Veil
TTITLE8=Send A Picture Of Mother
TTITLE9=The Wall
TTITLE10=Dirty Old Eggsuckin Dog
TTITLE11=Flushed From The Bathroom Of Your Heart
TTITLE12=Joe Bean
TTITLE13=Jackson (With June Carter)
TTITLE14=Give My love To Rose (Wizh June Carter)
TTITLE15=I Got Stripes
TTITLE16=The Legend Of John Henry Hammer
TTITLE17=Green Green Grass Of Home
TTITLE18=Greystone Chapel
TTITLE19=Bonus Track
EXTD=
EXTT0=
EXTT1=
EXTT2=
EXTT3=
EXTT4=
EXTT5=
EXTT6=
EXTT7=
EXTT8=
EXTT9=
EXTT10=
EXTT11=
EXTT12=
EXTT13=
EXTT14=
EXTT15=
EXTT16=
EXTT17=
EXTT18=
EXTT19=
PLAYORDER=
